<svg width="120" height="120" viewBox="0 0 120 120" fill="none" xmlns="http://www.w3.org/2000/svg">
<g clip-path="url(#clip0_407_6)">
<path d="M50 120H0V105H50V120ZM40 80H0V95H40V80ZM30 55H0V70H30V55ZM55 30V63.105L72.195 80.305L82.805 69.695L70 56.895V30H55ZM60 0C46.7158 0.0261156 33.8155 4.45788 23.3198 12.6011C12.8241 20.7443 5.32601 32.1389 2 45H17.65C20.4046 37.2281 25.2429 30.3631 31.6358 25.1554C38.0287 19.9476 45.7302 16.5976 53.8986 15.4714C62.0669 14.3453 70.3876 15.4864 77.9512 18.77C85.5148 22.0536 92.0301 27.3533 96.785 34.0899C101.54 40.8264 104.351 48.7405 104.912 56.967C105.473 65.1936 103.761 73.4159 99.9639 80.7352C96.167 88.0546 90.4309 94.1893 83.3827 98.4687C76.3346 102.748 68.2456 105.008 60 105V120C75.913 120 91.1742 113.679 102.426 102.426C113.679 91.1742 120 75.913 120 60C120 44.087 113.679 28.8258 102.426 17.5736C91.1742 6.32141 75.913 0 60 0V0Z" fill="white"/>
</g>
<defs>
<clipPath id="clip0_407_6">
<rect width="120" height="120" fill="white"/>
</clipPath>
</defs>
</svg>
