<svg width="125" height="125" viewBox="0 0 125 125" fill="none" xmlns="http://www.w3.org/2000/svg">
<g clip-path="url(#clip0_407_22)">
<path d="M122.715 111.695L98.5211 87.4911C116.624 63.2996 111.688 29.0132 87.4963 10.9104C63.3047 -7.19226 29.0183 -2.25624 10.9156 21.9353C-7.18713 46.1268 -2.25111 80.4133 21.9404 98.516C41.3731 113.058 68.0634 113.058 87.4963 98.516L111.7 122.72C114.742 125.761 119.673 125.761 122.714 122.72C125.756 119.678 125.756 114.747 122.714 111.705L122.715 111.695ZM54.92 93.8444C33.4198 93.8444 15.9905 76.4152 15.9905 54.9149C15.9905 33.4146 33.4198 15.9854 54.92 15.9854C76.4203 15.9854 93.8496 33.4146 93.8496 54.9149C93.8267 76.4055 76.4108 93.8216 54.92 93.8444Z" fill="white"/>
</g>
<defs>
<clipPath id="clip0_407_22">
<rect width="125" height="125" fill="white"/>
</clipPath>
</defs>
</svg>
