<svg width="151" height="151" viewBox="0 0 151 151" fill="none" xmlns="http://www.w3.org/2000/svg">
<path d="M44.0417 37.75C42.7973 37.75 41.5809 38.119 40.5462 38.8103C39.5115 39.5017 38.7051 40.4843 38.2289 41.6339C37.7527 42.7836 37.6281 44.0486 37.8709 45.2691C38.1136 46.4896 38.7129 47.6106 39.5928 48.4905C40.4727 49.3704 41.5938 49.9697 42.8142 50.2124C44.0347 50.4552 45.2997 50.3306 46.4494 49.8544C47.599 49.3782 48.5817 48.5718 49.273 47.5371C49.9643 46.5025 50.3333 45.286 50.3333 44.0417C50.3333 42.373 49.6705 40.7727 48.4905 39.5928C47.3106 38.4129 45.7103 37.75 44.0417 37.75ZM136.592 74.1158L76.9471 14.5967C76.3604 13.9641 75.65 13.459 74.8599 13.1126C74.0698 12.7663 73.2169 12.5861 72.3542 12.5833H34.6042C33.7761 12.5785 32.9553 12.7372 32.1887 13.0503C31.4222 13.3635 30.725 13.8248 30.1371 14.4079L14.4079 30.0742C13.8248 30.6621 13.3635 31.3593 13.0503 32.1258C12.7372 32.8924 12.5785 33.7132 12.5833 34.5412V72.2912C12.6065 73.9571 13.2582 75.5526 14.4079 76.7583L74.1158 136.529C75.3215 137.679 76.9171 138.331 78.5829 138.354C79.4109 138.359 80.2318 138.2 80.9983 137.887C81.7649 137.574 82.4621 137.112 83.05 136.529L136.592 82.9871C137.175 82.3992 137.637 81.702 137.95 80.9354C138.263 80.1689 138.421 79.348 138.417 78.52C138.378 76.876 137.727 75.3056 136.592 74.1158V74.1158ZM78.5829 123.254L25.1667 69.7746V37.1208L37.1208 25.1667H69.7117L123.191 78.5829L78.5829 123.254Z" fill="white"/>
</svg>
